<svg xmlns="http://www.w3.org/2000/svg" viewBox="0 0 3072 2948" width="384.00000000000006" height="368.5" stroke="black"
     fill="black">
	<g>
		<g transform="translate(256 150)">
			<path d="M12 216c-6.627 0-12 5.373-12 12v56c0 6.627 5.373 12 12 12h877.941v46.059c0 21.382 25.851 32.09 40.971 16.971 l86.059 -86.059c9.373-9.373 9.373-24.569 0-33.941l-86.059-86.059c-15.119-15.119-40.971-4.411-40.971 16.971v46.059z"/>
			<text x="512" y="0" font-family="Verdana" font-size="120" text-anchor="middle">default</text>
		</g>
	</g>
	<g>
		<g transform="translate(1792 150)">
			<path d="M12 216c-6.627 0-12 5.373-12 12v56c0 6.627 5.373 12 12 12h1000c6.627 0 12 -5.373 12 -12v-56c0 -6.627 -5.373 -12 -12 -12z"/>
			<text x="512" y="0" font-family="Verdana" font-size="120" text-anchor="middle">line</text>
		</g>
	</g>
	<g>
		<g transform="translate(256 862)">
			<path d="M134.059 216v-46.059c0-21.382-25.851-32.09-40.971-16.971l-86.059 86.059c-9.373 9.373-9.373 24.568 0 33.941l86.059 86.059c15.119 15.119 40.971 4.411 40.971-16.971v-46.059h755.94v46.059c0 21.382 25.851 32.09 40.971 16.971 l86.059 -86.059c9.373-9.373 9.373-24.569 0-33.941l-86.059-86.059c-15.119-15.119-40.971-4.411-40.971 16.971v46.059z"/>
			<text x="512" y="0" font-family="Verdana" font-size="120" text-anchor="middle">double</text>
		</g>
	</g>
	<g>
		<g transform="translate(1792 862)">
			<path d="M12 126c-6.627 0-12 5.373-12 12v56c0 6.627 5.373 12 12 12h877.941v46.059c0 21.382 25.851 32.09 40.971 16.971 l86.059 -86.059c9.373-9.373 9.373-24.569 0-33.941l-86.059-86.059c-15.119-15.119-40.971-4.411-40.971 16.971v46.059M134.059 306v-46.059c0-21.382-25.851-32.09-40.971-16.971l-86.059 86.059c-9.373 9.373-9.373 24.568 0 33.941l86.059 86.059c15.119 15.119 40.971 4.411 40.971-16.971v-46.059h877.941c6.627 0 12 -5.373 12 -12v-56c0 -6.627 -5.373 -12 -12 -12z"/>
			<text x="512" y="0" font-family="Verdana" font-size="120" text-anchor="middle">split-double</text>
		</g>
	</g>
	<g>
		<g transform="translate(256 1574)">
            <path d="M12 216c-6.627 0-12 5.373-12 12v56c0 6.627 5.373 12 12 12h56c6.627 0 12 -5.373 12 -12v-56c0 -6.627 -5.373 -12 -12 -12m117.18820000000001 0c-6.627 0-12 5.373-12 12v56c0 6.627 5.373 12 12 12h56c6.627 0 12 -5.373 12 -12v-56c0 -6.627 -5.373 -12 -12 -12m117.18820000000001 0c-6.627 0-12 5.373-12 12v56c0 6.627 5.373 12 12 12h56c6.627 0 12 -5.373 12 -12v-56c0 -6.627 -5.373 -12 -12 -12m117.18820000000001 0c-6.627 0-12 5.373-12 12v56c0 6.627 5.373 12 12 12h56c6.627 0 12 -5.373 12 -12v-56c0 -6.627 -5.373 -12 -12 -12m117.18820000000001 0c-6.627 0-12 5.373-12 12v56c0 6.627 5.373 12 12 12h56c6.627 0 12 -5.373 12 -12v-56c0 -6.627 -5.373 -12 -12 -12m117.18820000000001 0v80v46.059c0 21.382 25.851 32.09 40.971 16.971 l86.059 -86.059c9.373-9.373 9.373-24.569 0-33.941l-86.059-86.059c-15.119-15.119-40.971-4.411-40.971 16.971v46.059z"/>
			<text x="512" y="0" font-family="Verdana" font-size="120" text-anchor="middle">dashed</text>
		</g>
	</g>
	<g>
		<g transform="translate(1792 1574)">
            <path d="M12 216c-6.627 0-12 5.373-12 12v56c0 6.627 5.373 12 12 12h56c6.627 0 12 -5.373 12 -12v-56c0 -6.627 -5.373 -12 -12 -12m132.8 0c-6.627 0-12 5.373-12 12v56c0 6.627 5.373 12 12 12h56c6.627 0 12 -5.373 12 -12v-56c0 -6.627 -5.373 -12 -12 -12m132.8 0c-6.627 0-12 5.373-12 12v56c0 6.627 5.373 12 12 12h56c6.627 0 12 -5.373 12 -12v-56c0 -6.627 -5.373 -12 -12 -12m132.8 0c-6.627 0-12 5.373-12 12v56c0 6.627 5.373 12 12 12h56c6.627 0 12 -5.373 12 -12v-56c0 -6.627 -5.373 -12 -12 -12m132.8 0c-6.627 0-12 5.373-12 12v56c0 6.627 5.373 12 12 12h56c6.627 0 12 -5.373 12 -12v-56c0 -6.627 -5.373 -12 -12 -12m132.8 0c-6.627 0-12 5.373-12 12v56c0 6.627 5.373 12 12 12h56c6.627 0 12 -5.373 12 -12v-56c0 -6.627 -5.373 -12 -12 -12z"/>
			<text x="512" y="0" font-family="Verdana" font-size="120" text-anchor="middle">dashed-line</text>
		</g>
	</g>
	<g>
		<g transform="translate(256 2286)">
            <path d="M134.059 216v-46.059c0-21.382-25.851-32.09-40.971-16.971l-86.059 86.059c-9.373 9.373-9.373 24.568 0 33.941l86.059 86.059c15.119 15.119 40.971 4.411 40.971-16.971v-46.059m101.5764-80c-6.627 0-12 5.373-12 12v56c0 6.627 5.373 12 12 12h56c6.627 0 12 -5.373 12 -12v-56c0 -6.627 -5.373 -12 -12 -12m101.5764 0c-6.627 0-12 5.373-12 12v56c0 6.627 5.373 12 12 12h56c6.627 0 12 -5.373 12 -12v-56c0 -6.627 -5.373 -12 -12 -12m101.5764 0c-6.627 0-12 5.373-12 12v56c0 6.627 5.373 12 12 12h56c6.627 0 12 -5.373 12 -12v-56c0 -6.627 -5.373 -12 -12 -12m101.5764 0c-6.627 0-12 5.373-12 12v56c0 6.627 5.373 12 12 12h56c6.627 0 12 -5.373 12 -12v-56c0 -6.627 -5.373 -12 -12 -12m101.5764 0v80v46.059c0 21.382 25.851 32.09 40.971 16.971 l86.059 -86.059c9.373-9.373 9.373-24.569 0-33.941l-86.059-86.059c-15.119-15.119-40.971-4.411-40.971 16.971v46.059z"/>
			<text x="512" y="0" font-family="Verdana" font-size="120" text-anchor="middle">dashed-double</text>
		</g>
	</g>
	<g>
		<g transform="translate(1792 2286)">
            <path d="M12 126c-6.627 0-12 5.373-12 12v56c0 6.627 5.373 12 12 12h56c6.627 0 12 -5.373 12 -12v-56c0 -6.627 -5.373 -12 -12 -12m117.18820000000001 0c-6.627 0-12 5.373-12 12v56c0 6.627 5.373 12 12 12h56c6.627 0 12 -5.373 12 -12v-56c0 -6.627 -5.373 -12 -12 -12m117.18820000000001 0c-6.627 0-12 5.373-12 12v56c0 6.627 5.373 12 12 12h56c6.627 0 12 -5.373 12 -12v-56c0 -6.627 -5.373 -12 -12 -12m117.18820000000001 0c-6.627 0-12 5.373-12 12v56c0 6.627 5.373 12 12 12h56c6.627 0 12 -5.373 12 -12v-56c0 -6.627 -5.373 -12 -12 -12m117.18820000000001 0c-6.627 0-12 5.373-12 12v56c0 6.627 5.373 12 12 12h56c6.627 0 12 -5.373 12 -12v-56c0 -6.627 -5.373 -12 -12 -12m117.18820000000001 0v80v46.059c0 21.382 25.851 32.09 40.971 16.971 l86.059 -86.059c9.373-9.373 9.373-24.569 0-33.941l-86.059-86.059c-15.119-15.119-40.971-4.411-40.971 16.971v46.059M134.059 306v-46.059c0-21.382-25.851-32.09-40.971-16.971l-86.059 86.059c-9.373 9.373-9.373 24.568 0 33.941l86.059 86.059c15.119 15.119 40.971 4.411 40.971-16.971v-46.059m117.18820000000001 -80c-6.627 0-12 5.373-12 12v56c0 6.627 5.373 12 12 12h56c6.627 0 12 -5.373 12 -12v-56c0 -6.627 -5.373 -12 -12 -12m117.18820000000001 0c-6.627 0-12 5.373-12 12v56c0 6.627 5.373 12 12 12h56c6.627 0 12 -5.373 12 -12v-56c0 -6.627 -5.373 -12 -12 -12m117.18820000000001 0c-6.627 0-12 5.373-12 12v56c0 6.627 5.373 12 12 12h56c6.627 0 12 -5.373 12 -12v-56c0 -6.627 -5.373 -12 -12 -12m117.18820000000001 0c-6.627 0-12 5.373-12 12v56c0 6.627 5.373 12 12 12h56c6.627 0 12 -5.373 12 -12v-56c0 -6.627 -5.373 -12 -12 -12m117.18820000000001 0c-6.627 0-12 5.373-12 12v56c0 6.627 5.373 12 12 12h56c6.627 0 12 -5.373 12 -12v-56c0 -6.627 -5.373 -12 -12 -12z"/>
			<text x="512" y="0" font-family="Verdana" font-size="120" text-anchor="middle">dashed-split-double</text>
		</g>
	</g>
</svg>